<?xml version="1.0" encoding="iso-8859-1"?>
<!-- Generator: Adobe Illustrator 19.0.0, SVG Export Plug-In . SVG Version: 6.00 Build 0)  -->
<svg version="1.1" id="Layer_1" xmlns="http://www.w3.org/2000/svg" xmlns:xlink="http://www.w3.org/1999/xlink" x="0px" y="0px"
	 viewBox="0 0 512.002 512.002" style="enable-background:new 0 0 512.002 512.002;" xml:space="preserve">
<circle style="fill:#006775;" cx="256.001" cy="256.001" r="256.001"/>
<path style="fill:#055661;" d="M250.773,366.539l24.767-18.804l-50.604-50.204L272.938,99.85l49.38-14.996l189.049,189.049
	C502.177,406.932,391.364,512.001,256,512.001c-5.073,0-10.108-0.166-15.109-0.456l-78.162-78.162l4.028-3.061l-25.821-25.821
	l26.366-17.594l24.446,24.446l15.718-11.935l-65.589-65.589l38.093-38.093L250.773,366.539L250.773,366.539z"/>
<path style="fill:#E6E6E6;" d="M161.218,286.085c-18.613,8.18-2.535,21.416-2.535,21.416s-0.794,4.378-3.419,4.378
	c-2.623,0-16.121-7.001-18.744,5.334c-2.625,12.334,5.557,23.231,23.243,17.669l16.823-5.287
	c6.385-2.009,145.834,78.343,145.834,83.009c0,4.669,3.514,23.454,17.431,22.504c30.46-2.081,8.162-23.549,11.623-26.338
	c5.997-4.834-0.561-4.666,12.935-2.667c13.494,2.002,16.587-23.671,1.592-24.753c-14.996-1.084-22.306,7.084-26.336,8.418
	c-4.03,1.333-149.49-82.192-149.49-82.192C181.032,297.209,179.831,277.907,161.218,286.085L161.218,286.085z"/>
<path style="fill:#CCCCCC;" d="M138.91,312.234c-1.07,1.124-1.913,2.727-2.39,4.978c-2.625,12.334,5.557,23.231,23.243,17.669
	l16.823-5.287c6.385-2.009,145.834,78.343,145.834,83.009c0,4.669,3.514,23.454,17.431,22.504
	c26.624-1.818,12.942-18.449,11.385-24.471c0.242,0.971,2.793,8.678,2.722,11.306c-0.399,15.284-33.415,14.122-27.531-11.25
	c1.331-5.737-139.855-84.236-146.323-83.598C162.867,328.797,134.211,345.597,138.91,312.234L138.91,312.234z"/>
<path style="fill:#E6E6E6;" d="M350.783,286.085c18.613,8.18,2.535,21.416,2.535,21.416s0.794,4.378,3.419,4.378
	c2.623,0,16.121-7.001,18.744,5.334c2.625,12.334-5.557,23.231-23.243,17.669l-16.823-5.287
	c-6.385-2.009-145.834,78.343-145.834,83.009c0,4.669-3.514,23.454-17.431,22.504c-30.46-2.081-8.162-23.549-11.623-26.338
	c-5.997-4.834,0.561-4.666-12.935-2.667c-13.494,2.002-16.587-23.671-1.592-24.753c14.996-1.084,22.306,7.084,26.336,8.418
	c4.03,1.333,149.49-82.192,149.49-82.192C330.969,297.209,332.17,277.907,350.783,286.085L350.783,286.085z"/>
<path style="fill:#CCCCCC;" d="M373.09,312.234c1.07,1.124,1.913,2.727,2.39,4.978c2.625,12.334-5.557,23.231-23.243,17.669
	l-16.823-5.287c-6.386-2.009-145.834,78.343-145.834,83.009c0,4.669-3.514,23.454-17.431,22.504
	c-26.624-1.818-12.942-18.449-11.385-24.471c-0.242,0.971-2.793,8.678-2.722,11.306c0.399,15.284,33.415,14.122,27.531-11.25
	c-1.331-5.737,139.855-84.236,146.323-83.598C349.133,328.797,377.789,345.597,373.09,312.234L373.09,312.234z"/>
<path style="fill:#ECECEC;" d="M177.247,138.656c2.223,10.077,10.24,21.753,7.066,36.411c-0.719,3.319-2.427,22.228-4.638,29.375
	c-2.706,8.749,0.021,17.999,5.19,26.852c10.459,17.904,10.066-2.288,22.207,18.588c4.247,7.301,7.026,14.925,9.26,22.004
	c-0.703,2.466-0.877,16.023-0.36,17.764c1.405,4.738,13.163,17.496,18.195,20.431c7.07,4.129,14.15,3.81,22.13,2.741
	c7.981,1.068,15.025,1.408,22.13-2.741c5.372-3.135,16.74-15.111,18.318-20.431c0.447-1.504,0.438-14.401-0.046-16.544
	c2.507-7.414,5.513-15.502,10.007-23.224c12.144-20.876,11.748-0.682,22.207-18.588c6.433-11.015,8.392-25.148,4.733-34.837
	c-1.684-4.454-4.799-19.065-5.299-21.39c-3.174-14.657,4.848-26.338,7.066-36.411c1.732-7.878-2.653-27.818-3.91-34.283
	C319.93,44.93,194.159,44.86,182.318,104.161C181.016,110.681,175.49,130.688,177.247,138.656L177.247,138.656z"/>
<g>
	<path style="fill:#CCCCCC;" d="M212.315,260.618c1.569,3.824,2.865,7.617,4.017,11.269c-0.314,1.101-0.524,4.403-0.612,7.882
		c0.579-0.396,1.098-0.849,1.478-1.38c1.709-2.369,1.88-4.987,1.88-8.537c0-3.552,3.549-22.186,9.981-24.627
		c6.435-2.439,7.213-17.748,8.985-24.846c-14.827-3.151-17.317,4.812-21.42,10.645c-6.39,5.42-13.796,5.737-20.122,8.415
		L212.315,260.618L212.315,260.618z M297.058,279.866c-0.037-3.056-0.159-5.86-0.36-6.761c2.507-7.414,5.513-15.502,10.007-23.224
		c4.701-8.085,7.524-10.009,9.826-10.373c-6.574-0.91-9.425-0.701-15.902-4.101c-8.265-4.338-6.655-19.077-25.958-14.973
		c1.774,7.098,2.551,22.407,8.985,24.846c6.433,2.439,9.981,21.076,9.981,24.627c0,3.549,0.172,6.168,1.88,8.537
		C295.913,278.994,296.453,279.462,297.058,279.866L297.058,279.866z"/>
	<path style="fill:#CCCCCC;" d="M328.015,173.296c-1.746-2.232-3.426-5.064-4.559-8.376c-2.881-8.431-11.757-15.974-11.757-15.974
		s-7.988-6.435-5.99-24.625c1.252-11.422,14.922-19.258,24.926-23.508c0.328,1.163,0.63,2.346,0.868,3.561
		c1.257,6.465,5.642,26.405,3.91,34.283C333.284,148.319,325.814,159.465,328.015,173.296z M177.247,138.656
		c-1.757-7.969,3.767-27.976,5.068-34.495c0.198-0.999,0.438-1.981,0.701-2.946c9.898,4.332,22.777,12.034,23.992,23.106
		c1.995,18.19-5.99,24.625-5.99,24.625s-8.876,7.543-11.76,15.974c-1.147,3.356-2.86,6.223-4.632,8.466
		C186.875,159.511,179.384,148.345,177.247,138.656z"/>
</g>
<path style="fill:#4D4D4D;" d="M249.88,208.84c0,0-11.857,17.084-9.861,23.517c1.999,6.433,5.769,3.77,8.876,4.657
	c3.105,0.889,5.546,0.889,5.546,0.889s0.798-3.991,1.664-9.852c0.865,5.86,2.169,9.852,2.169,9.852s2.441,0,5.546-0.889
	c3.107-0.886,6.877,1.776,8.876-4.657c1.997-6.433-9.861-23.517-9.861-23.517c-2.092-1.538-5.451,4.066-6.477,6.053
	C255.332,212.906,251.972,207.302,249.88,208.84L249.88,208.84z"/>
<path style="fill:#B3B3B3;" d="M226.048,256.447c4.205,0.026,4.41,1.163,4.41,1.163s1.38-2.053,4.819-1.832
	c3.437,0.221,3.382,2.108,3.382,2.108s4.547-2.662,6.544-1.443c1.999,1.22,1.166,1.387,1.166,1.387s4.05-2.941,7.766-0.945
	c1.257,0.678,1.979,1.094,2.381,1.352c0.403-0.258,1.121-0.675,2.378-1.352c3.716-1.997,7.766,0.945,7.766,0.945
	s-0.831-0.168,1.166-1.387c1.997-1.22,6.544,1.443,6.544,1.443s-0.056-1.887,3.384-2.108c3.439-0.221,4.819,1.832,4.819,1.832
	s0.203-1.138,4.41-1.163c4.205-0.028,4.021,7.536,5.12,10.636c0.612,1.718-1.199,3.656-1.199,3.656s-0.081,1.303-0.47,3.3
	c-0.391,1.997-2.888,6.456-4.163,9.118c-1.275,2.662-3.826,1.497-3.826,1.497s-1.331,1.166-2.662,2.939
	c-1.333,1.776-6.325,0.777-6.325,0.777c-3.689,3.784-5.034,4.517-10.484,3.545c-0.696,1.022-4.482,2.397-6.095,2.948v0.242
	l-0.363-0.118l-0.365,0.118v-0.242c-1.613-0.551-5.4-1.927-6.092-2.948c-5.453,0.973-6.798,0.24-10.487-3.545
	c0,0-4.992,0.999-6.323-0.777c-1.331-1.774-2.665-2.939-2.665-2.939s-2.551,1.166-3.826-1.497c-1.275-2.662-3.772-7.121-4.161-9.118
	c-0.391-1.997-0.473-3.3-0.473-3.3s-1.808-1.938-1.199-3.656C222.027,263.983,221.84,256.42,226.048,256.447z"/>
<g>
	<path style="fill:#FFFFFF;" d="M259.841,258.048c0,0-3.228,2.083-3.204,6.034c0.026,3.952,0.14,11.367,0.14,11.367
		s1.036,1.622,5.886,1.008c4.855-0.619,5.006-1.154,5.006-1.154s-1.121-13.675-1.149-14.189
		C266.491,260.599,267.467,256.319,259.841,258.048L259.841,258.048z M252.875,258.048c0,0,3.228,2.085,3.204,6.037
		c-0.026,3.949-0.14,11.365-0.14,11.365s-1.036,1.622-5.886,1.006c-4.855-0.616-5.006-1.152-5.006-1.152s1.121-13.672,1.149-14.189
		C246.224,260.599,245.249,256.321,252.875,258.048L252.875,258.048z M243.647,258.028c0,0,2.307,1.301,2.138,5.034
		c-0.166,3.733-1.015,11.413-1.015,11.413c-1.428,2.111-8.69,0.27-8.767-2.297c0,0,1.457-10.175,1.499-10.657
		C237.547,261.034,238.829,256.256,243.647,258.028L243.647,258.028z M235.306,257.836c0,0,2.025,1.296,1.732,4.648
		c-0.293,3.349-1.352,10.212-1.352,10.212c-1.366,1.82-7.831-0.242-7.799-2.558c0,0,1.702-9.072,1.757-9.504
		C229.702,260.199,231.04,255.97,235.306,257.836L235.306,257.836z M269.068,258.028c0,0-2.307,1.301-2.138,5.034
		c0.166,3.733,1.015,11.413,1.015,11.413c1.428,2.111,8.69,0.27,8.767-2.297c0,0-1.457-10.175-1.499-10.657
		C275.167,261.034,273.886,256.256,269.068,258.028L269.068,258.028z M277.409,257.836c0,0-2.025,1.296-1.734,4.648
		c0.295,3.349,1.354,10.212,1.354,10.212c1.366,1.82,7.829-0.242,7.799-2.558c0,0-1.702-9.072-1.76-9.504
		C283.013,260.199,281.677,255.972,277.409,257.836L277.409,257.836z M284.884,258.041c0,0-1.617,1.161-1.266,3.894
		c0.356,2.729,1.453,8.302,1.453,8.302c1.18,1.424,6.407-0.582,6.304-2.477c0,0-1.698-7.352-1.76-7.704
		C289.555,259.703,288.319,256.307,284.884,258.041L284.884,258.041z M227.831,258.041c0,0,1.617,1.163,1.266,3.894
		c-0.353,2.729-1.453,8.302-1.453,8.302c-1.183,1.424-6.407-0.584-6.304-2.477c0,0,1.699-7.352,1.76-7.704
		C223.16,259.703,224.398,256.305,227.831,258.041L227.831,258.041z"/>
	<path style="fill:#FFFFFF;" d="M256.812,289.24l-0.147-8.992c-0.044-2.807,9.005-4.08,10.21-1.631
		c0.726,1.471-2.823,10.352-3.1,10.773C263.499,289.809,258.655,294.633,256.812,289.24L256.812,289.24z M255.905,289.24
		l0.147-8.992c0.044-2.807-9.005-4.08-10.21-1.631c-0.726,1.471,2.823,10.352,3.1,10.773
		C249.219,289.809,254.062,294.633,255.905,289.24L255.905,289.24z M231.021,281.167l-2.867-7.233
		c-0.526-1.324-3.822-3.042-4.911-1.675c-0.905,1.135,3.075,8.02,3.248,8.332C226.665,280.901,231.042,285.584,231.021,281.167
		L231.021,281.167z M238.38,284.553l-1.368-3.894l-1.354-3.331l-0.494-1.04c-0.71-1.49-4.771-3.709-6.037-2.118
		c-1.056,1.326,4.168,9.94,4.369,10.307C233.694,284.85,238.178,288.717,238.38,284.553L238.38,284.553z M241.008,287.807
		c0.277,0.419,6.63,5.324,6.537-0.379l-2.816-8.5c-0.582-1.792-6.856-4.322-8.544-2.611c-0.125,0.129-0.193,0.323-0.212,0.57
		C236.335,278.994,239.623,285.685,241.008,287.807L241.008,287.807z M281.693,281.167l2.87-7.233
		c0.526-1.324,3.822-3.042,4.908-1.675c0.907,1.135-3.075,8.02-3.246,8.332C286.05,280.902,281.674,285.584,281.693,281.167
		L281.693,281.167z M274.334,284.553l1.37-3.894l1.354-3.331l0.494-1.04c0.708-1.49,4.768-3.709,6.037-2.118
		c1.054,1.326-4.168,9.94-4.369,10.307C279.021,284.85,274.539,288.717,274.334,284.553L274.334,284.553z M271.709,287.807
		c-0.277,0.419-6.63,5.324-6.537-0.379l2.814-8.5c0.584-1.792,6.858-4.322,8.546-2.611c0.125,0.129,0.191,0.323,0.21,0.57
		C276.382,278.994,273.091,285.685,271.709,287.807L271.709,287.807z"/>
</g>
<path style="fill:#4D4D4D;" d="M237.072,158.12c9.23,1.73,7.213,12.369,7.126,17.667c-0.123,7.462-4.208,14.999-9.547,17.676
	c-7.156,3.587-28.949,6.41-37.835-2.29c-9.047-8.853-0.293-24.199,2.397-27.087C207.896,154.766,230.915,156.967,237.072,158.12z"/>
<path style="fill:#E6E6E6;" d="M239.03,151.345c5.695,2.162,9.23,7.384,8.604,10.424c-0.626,3.042-2.775,7.938-3.193,8.383
	c0.067-5.104-0.824-10.807-7.368-12.032l-0.3-0.056l-0.323-0.056l-0.349-0.056l-0.372-0.058l-0.391-0.058l-0.415-0.058l-0.433-0.058
	h-0.002l-0.452-0.056l-0.475-0.058l-0.491-0.056l-0.507-0.053l-0.526-0.053l0,0l-0.54-0.049h-0.002l-0.556-0.049l0,0l-0.57-0.046
	h-0.002l-0.584-0.042l-0.6-0.042l-0.609-0.037h-0.002l-0.621-0.032h-0.002l-0.633-0.028v-0.002l-0.644-0.023l-0.002-0.002
	l-0.651-0.019h-0.002l-0.661-0.016h-0.002l-0.671-0.009v-0.002l-0.68-0.005l-1.377,0.007h-0.002l-0.696,0.014h-0.002l-0.701,0.016
	h-0.002l-0.705,0.026v0.002l-0.71,0.032l-0.712,0.039v0.002l-0.715,0.046l-0.715,0.056l0,0l-0.717,0.063v0.002l-0.715,0.072
	l-0.715,0.079v0.002l-0.715,0.088v0.002c-0.475,0.063-0.948,0.135-1.415,0.21l-0.703,0.118h-0.002l-0.699,0.131l-0.694,0.14v0.002
	l-0.687,0.152h-0.002c-0.456,0.104-0.905,0.214-1.352,0.335v0.002l-0.664,0.184h-0.002l-0.657,0.198l-0.644,0.21h-0.002
	l-0.635,0.221v0.002l-0.626,0.235l-0.614,0.247l-0.6,0.263l-0.589,0.275v0.002l-0.572,0.288h-0.002l-0.558,0.302l-0.544,0.319
	l-0.528,0.332l-0.512,0.349l-0.494,0.365l-0.477,0.377l-0.456,0.396c-0.149,0.135-0.295,0.27-0.438,0.412v0.002l-0.417,0.426
	c-1.704,1.827-5.832,8.643-6.344,15.646c-1.709-4.45,0.808-20.001,7.713-23.084c3.167-1.412,21.948-9.279,38.446-5.301
	L239.03,151.345z"/>
<path style="fill:#4D4D4D;" d="M275.642,158.12c-9.23,1.73-7.213,12.369-7.126,17.667c0.123,7.462,4.208,14.999,9.547,17.676
	c7.156,3.587,28.949,6.41,37.835-2.29c9.049-8.853,0.293-24.199-2.397-27.087C304.819,154.766,281.8,156.967,275.642,158.12z"/>
<path style="fill:#E6E6E6;" d="M273.685,151.345c-5.695,2.162-9.227,7.384-8.604,10.424c0.626,3.042,2.775,7.938,3.193,8.383
	c-0.067-5.104,0.824-10.807,7.368-12.032l0.3-0.056l0.323-0.056l0.349-0.056l0.372-0.058l0.391-0.058l0.415-0.058l0.433-0.058h0.002
	l0.452-0.056l0.475-0.058l0.491-0.056l0.507-0.053l0.526-0.053l0,0l0.54-0.049h0.002l0.556-0.049l0,0l0.57-0.046h0.002l0.584-0.042
	l0.6-0.042l0.609-0.037h0.002l0.621-0.032h0.002l0.633-0.028v-0.002l0.644-0.023l0.002-0.002l0.651-0.019h0.002l0.661-0.016h0.002
	l0.671-0.009v-0.002l0.68-0.005l1.377,0.007h0.002l0.696,0.014h0.002l0.701,0.016h0.002l0.705,0.026v0.002l0.71,0.032l0.712,0.039
	v0.002l0.715,0.046l0.715,0.056l0,0l0.717,0.063v0.002l0.715,0.072l0.715,0.079v0.002l0.715,0.088v0.002
	c0.475,0.063,0.948,0.135,1.417,0.21l0.701,0.118h0.002l0.699,0.131l0.694,0.14v0.002l0.687,0.152h0.002
	c0.456,0.104,0.905,0.214,1.352,0.335v0.002l0.664,0.184h0.002l0.656,0.198l0.644,0.21h0.002l0.635,0.221v0.002l0.626,0.235
	l0.614,0.247l0.6,0.263l0.589,0.275v0.002l0.572,0.288h0.002l0.558,0.302l0.544,0.319l0.528,0.332l0.512,0.349l0.494,0.365
	l0.477,0.377l0.456,0.396c0.149,0.135,0.295,0.27,0.438,0.412v0.002l0.417,0.426c1.704,1.827,5.832,8.643,6.344,15.646
	c1.711-4.45-0.808-20.001-7.713-23.084c-3.167-1.412-21.946-9.279-38.446-5.301L273.685,151.345z"/>
<g>
</g>
<g>
</g>
<g>
</g>
<g>
</g>
<g>
</g>
<g>
</g>
<g>
</g>
<g>
</g>
<g>
</g>
<g>
</g>
<g>
</g>
<g>
</g>
<g>
</g>
<g>
</g>
<g>
</g>
</svg>
